<svg width="21" height="20" viewBox="0 0 21 20" fill="none" xmlns="http://www.w3.org/2000/svg">
<path d="M10.4998 8.01132C9.34869 8.01132 8.41143 8.90352 8.41143 9.99978C8.41143 11.0965 9.34869 11.9891 10.4998 11.9891C11.6513 11.9891 12.5881 11.0965 12.5881 9.99978C12.5881 8.90352 11.6513 8.01132 10.4998 8.01132ZM10.4998 8.01132C9.34869 8.01132 8.41143 8.90352 8.41143 9.99978C8.41143 11.0965 9.34869 11.9891 10.4998 11.9891C11.6513 11.9891 12.5881 11.0965 12.5881 9.99978C12.5881 8.90352 11.6513 8.01132 10.4998 8.01132ZM13.9788 4.76861H7.0212C5.91067 4.76861 5.00704 5.62921 5.00704 6.68685V13.3131C5.00704 14.3708 5.91067 15.2314 7.0212 15.2314H13.9788C15.0893 15.2314 15.993 14.3708 15.993 13.3131V6.68685C15.993 5.62921 15.0893 4.76861 13.9788 4.76861ZM10.4998 13.4444C8.50589 13.4444 6.88342 11.8992 6.88342 9.99978C6.88342 8.10085 8.50589 6.55564 10.4998 6.55564C12.4941 6.55564 14.1166 8.10085 14.1166 9.99978C14.1166 11.8992 12.4941 13.4444 10.4998 13.4444ZM14.2327 7.2679C13.7608 7.2679 13.377 6.90233 13.377 6.45294C13.377 6.00355 13.7608 5.63799 14.2327 5.63799C14.7046 5.63799 15.0884 6.00355 15.0884 6.45294C15.0884 6.90233 14.7046 7.2679 14.2327 7.2679ZM10.4998 8.01132C9.34869 8.01132 8.41143 8.90352 8.41143 9.99978C8.41143 11.0965 9.34869 11.9891 10.4998 11.9891C11.6513 11.9891 12.5881 11.0965 12.5881 9.99978C12.5881 8.90352 11.6513 8.01132 10.4998 8.01132ZM13.9788 4.76861H7.0212C5.91067 4.76861 5.00704 5.62921 5.00704 6.68685V13.3131C5.00704 14.3708 5.91067 15.2314 7.0212 15.2314H13.9788C15.0893 15.2314 15.993 14.3708 15.993 13.3131V6.68685C15.993 5.62921 15.0893 4.76861 13.9788 4.76861ZM10.4998 13.4444C8.50589 13.4444 6.88342 11.8992 6.88342 9.99978C6.88342 8.10085 8.50589 6.55564 10.4998 6.55564C12.4941 6.55564 14.1166 8.10085 14.1166 9.99978C14.1166 11.8992 12.4941 13.4444 10.4998 13.4444ZM14.2327 7.2679C13.7608 7.2679 13.377 6.90233 13.377 6.45294C13.377 6.00355 13.7608 5.63799 14.2327 5.63799C14.7046 5.63799 15.0884 6.00355 15.0884 6.45294C15.0884 6.90233 14.7046 7.2679 14.2327 7.2679ZM10.4998 8.01132C9.34869 8.01132 8.41143 8.90352 8.41143 9.99978C8.41143 11.0965 9.34869 11.9891 10.4998 11.9891C11.6513 11.9891 12.5881 11.0965 12.5881 9.99978C12.5881 8.90352 11.6513 8.01132 10.4998 8.01132ZM2 0C0.89543 0 0 0.895431 0 2V18C0 19.1046 0.895431 20 2 20H19C20.1046 20 21 19.1046 21 18V2C21 0.895431 20.1046 0 19 0H2ZM17.521 13.3131C17.521 15.1735 15.9321 16.6866 13.9788 16.6866H7.0212C5.06787 16.6866 3.47903 15.1735 3.47903 13.3131V6.68685C3.47903 4.82654 5.06787 3.31337 7.0212 3.31337H13.9788C15.9321 3.31337 17.521 4.82654 17.521 6.68685V13.3131ZM13.9788 4.76861H7.0212C5.91067 4.76861 5.00704 5.62921 5.00704 6.68685V13.3131C5.00704 14.3708 5.91067 15.2314 7.0212 15.2314H13.9788C15.0893 15.2314 15.993 14.3708 15.993 13.3131V6.68685C15.993 5.62921 15.0893 4.76861 13.9788 4.76861ZM10.4998 13.4444C8.50589 13.4444 6.88342 11.8992 6.88342 9.99978C6.88342 8.10085 8.50589 6.55564 10.4998 6.55564C12.4941 6.55564 14.1166 8.10085 14.1166 9.99978C14.1166 11.8992 12.4941 13.4444 10.4998 13.4444ZM14.2327 7.2679C13.7608 7.2679 13.377 6.90233 13.377 6.45294C13.377 6.00355 13.7608 5.63799 14.2327 5.63799C14.7046 5.63799 15.0884 6.00355 15.0884 6.45294C15.0884 6.90233 14.7046 7.2679 14.2327 7.2679ZM10.4998 8.01132C9.34869 8.01132 8.41143 8.90352 8.41143 9.99978C8.41143 11.0965 9.34869 11.9891 10.4998 11.9891C11.6513 11.9891 12.5881 11.0965 12.5881 9.99978C12.5881 8.90352 11.6513 8.01132 10.4998 8.01132ZM10.4998 8.01132C9.34869 8.01132 8.41143 8.90352 8.41143 9.99978C8.41143 11.0965 9.34869 11.9891 10.4998 11.9891C11.6513 11.9891 12.5881 11.0965 12.5881 9.99978C12.5881 8.90352 11.6513 8.01132 10.4998 8.01132ZM10.4998 8.01132C9.34869 8.01132 8.41143 8.90352 8.41143 9.99978C8.41143 11.0965 9.34869 11.9891 10.4998 11.9891C11.6513 11.9891 12.5881 11.0965 12.5881 9.99978C12.5881 8.90352 11.6513 8.01132 10.4998 8.01132ZM13.9788 4.76861H7.0212C5.91067 4.76861 5.00704 5.62921 5.00704 6.68685V13.3131C5.00704 14.3708 5.91067 15.2314 7.0212 15.2314H13.9788C15.0893 15.2314 15.993 14.3708 15.993 13.3131V6.68685C15.993 5.62921 15.0893 4.76861 13.9788 4.76861ZM10.4998 13.4444C8.50589 13.4444 6.88342 11.8992 6.88342 9.99978C6.88342 8.10085 8.50589 6.55564 10.4998 6.55564C12.4941 6.55564 14.1166 8.10085 14.1166 9.99978C14.1166 11.8992 12.4941 13.4444 10.4998 13.4444ZM14.2327 7.2679C13.7608 7.2679 13.377 6.90233 13.377 6.45294C13.377 6.00355 13.7608 5.63799 14.2327 5.63799C14.7046 5.63799 15.0884 6.00355 15.0884 6.45294C15.0884 6.90233 14.7046 7.2679 14.2327 7.2679ZM10.4998 8.01132C9.34869 8.01132 8.41143 8.90352 8.41143 9.99978C8.41143 11.0965 9.34869 11.9891 10.4998 11.9891C11.6513 11.9891 12.5881 11.0965 12.5881 9.99978C12.5881 8.90352 11.6513 8.01132 10.4998 8.01132ZM10.4998 8.01132C9.34869 8.01132 8.41143 8.90352 8.41143 9.99978C8.41143 11.0965 9.34869 11.9891 10.4998 11.9891C11.6513 11.9891 12.5881 11.0965 12.5881 9.99978C12.5881 8.90352 11.6513 8.01132 10.4998 8.01132ZM10.4998 8.01132C9.34869 8.01132 8.41143 8.90352 8.41143 9.99978C8.41143 11.0965 9.34869 11.9891 10.4998 11.9891C11.6513 11.9891 12.5881 11.0965 12.5881 9.99978C12.5881 8.90352 11.6513 8.01132 10.4998 8.01132ZM13.9788 4.76861H7.0212C5.91067 4.76861 5.00704 5.62921 5.00704 6.68685V13.3131C5.00704 14.3708 5.91067 15.2314 7.0212 15.2314H13.9788C15.0893 15.2314 15.993 14.3708 15.993 13.3131V6.68685C15.993 5.62921 15.0893 4.76861 13.9788 4.76861ZM10.4998 13.4444C8.50589 13.4444 6.88342 11.8992 6.88342 9.99978C6.88342 8.10085 8.50589 6.55564 10.4998 6.55564C12.4941 6.55564 14.1166 8.10085 14.1166 9.99978C14.1166 11.8992 12.4941 13.4444 10.4998 13.4444ZM14.2327 7.2679C13.7608 7.2679 13.377 6.90233 13.377 6.45294C13.377 6.00355 13.7608 5.63799 14.2327 5.63799C14.7046 5.63799 15.0884 6.00355 15.0884 6.45294C15.0884 6.90233 14.7046 7.2679 14.2327 7.2679ZM10.4998 8.01132C9.34869 8.01132 8.41143 8.90352 8.41143 9.99978C8.41143 11.0965 9.34869 11.9891 10.4998 11.9891C11.6513 11.9891 12.5881 11.0965 12.5881 9.99978C12.5881 8.90352 11.6513 8.01132 10.4998 8.01132Z" fill="#3E3E3E"/>
</svg>
