<svg width="9" height="15" viewBox="0 0 9 15" fill="none" xmlns="http://www.w3.org/2000/svg">
<path d="M4.5 9.59531C6.98527 9.59531 9 7.55929 9 5.04766C9 2.53606 6.98527 0.5 4.5 0.5C2.01472 0.5 0 2.53606 0 5.04766C0 7.55929 2.01472 9.59531 4.5 9.59531Z" fill="#292D32"/>
<path d="M7.02667 10.0214C7.24667 9.90247 7.5 10.0774 7.5 10.3362V13.7295C7.5 14.3592 7.08 14.667 6.56 14.4081L4.77333 13.5196C4.62 13.4496 4.38 13.4496 4.22667 13.5196L2.44 14.4081C1.92 14.66 1.5 14.3522 1.5 13.7225L1.51333 10.3362C1.51333 10.0774 1.77333 9.90946 1.98667 10.0214C2.74 10.4202 3.59333 10.6441 4.5 10.6441C5.40667 10.6441 6.26667 10.4202 7.02667 10.0214Z" fill="#292D32"/>
</svg>
