<svg width="33" height="24" viewBox="0 0 33 24" fill="none" xmlns="http://www.w3.org/2000/svg">
<path d="M7.88958 17.6546C6.9795 17.6546 6.07083 17.3217 5.37348 16.6593L5.33225 16.6202C4.3975 15.7328 2.9094 15.7089 1.94408 16.5661C1.71775 16.7673 1.36284 16.7555 1.15124 16.5409C0.939633 16.3261 0.951552 15.989 1.17774 15.7882C2.58758 14.5365 4.76069 14.571 6.1251 15.8667L6.16632 15.9057C7.10108 16.7934 8.58903 16.8172 9.55435 15.9599L9.74815 15.7879C11.1577 14.5362 13.331 14.5709 14.6952 15.8667L14.7365 15.9057C15.6713 16.7934 17.1593 16.8171 18.1246 15.9599L18.3181 15.788C19.7277 14.5365 21.9009 14.5709 23.2655 15.8666L23.3073 15.9063C24.2413 16.7934 25.7296 16.8171 26.6947 15.9598L26.8883 15.7879C28.2981 14.5362 30.4711 14.5707 31.8356 15.8665C32.0548 16.0744 32.0548 16.4117 31.8356 16.6197C31.6167 16.8278 31.2615 16.8277 31.0425 16.6197C30.1079 15.7324 28.6198 15.7088 27.6546 16.5658L27.4611 16.7377C26.0512 17.9893 23.8783 17.9549 22.5137 16.6591L22.4719 16.6195C21.5379 15.7324 20.0497 15.7087 19.0845 16.5659L18.891 16.7378C17.4811 17.9895 15.3082 17.955 13.9436 16.6593L13.9024 16.6202C12.9676 15.7326 11.4797 15.7089 10.5143 16.5661L10.3206 16.7381C9.63162 17.3499 8.75983 17.6545 7.88958 17.6546ZM7.88943 12.7087C6.9795 12.7087 6.07083 12.3759 5.37348 11.7135L5.33225 11.6745C4.3975 10.7869 2.9094 10.7632 1.94408 11.6204C1.71775 11.8214 1.36284 11.8099 1.15124 11.5951C0.939633 11.3803 0.951552 11.0432 1.17774 10.8424C2.58758 9.59074 4.76083 9.62536 6.1251 10.921L6.16632 10.96C6.83633 11.5963 7.791 11.7889 8.63278 11.5309V3.65271C8.63278 2.77735 7.88284 2.06524 6.96099 2.06524H6.91584C5.99398 2.06524 5.24405 2.77735 5.24405 3.65271V4.02448C5.24405 4.31862 4.9929 4.5571 4.68314 4.5571C4.37338 4.5571 4.12223 4.31862 4.12223 4.02448V3.65271C4.12223 2.19 5.37544 1 6.91584 1H6.96099C8.50139 1 9.7546 2.19 9.7546 3.65271V7.79449H15.8292V3.65271C15.8292 2.77735 15.0793 2.06524 14.1575 2.06524H14.1123C13.1906 2.06524 12.4405 2.77735 12.4405 3.65271V4.02448C12.4405 4.31862 12.1894 4.5571 11.8796 4.5571C11.5698 4.5571 11.3187 4.31862 11.3187 4.02448V3.65271C11.3187 2.19 12.5719 1 14.1123 1H14.1575C15.6978 1 16.9511 2.19 16.9511 3.65271V11.5939C17.3759 11.5104 17.783 11.3175 18.1246 11.014L18.3181 10.8423C19.7277 9.59048 21.9011 9.6251 23.2655 10.9208L23.3073 10.9605C24.2413 11.8475 25.7296 11.8713 26.6947 11.014L26.8883 10.8423C28.2981 9.59048 30.4711 9.62523 31.8356 10.9208C32.0548 11.1289 32.0548 11.4661 31.8356 11.6741C31.6167 11.8821 31.2612 11.8821 31.0425 11.6741C30.1079 10.7866 28.6196 10.763 27.6546 11.6203L27.4611 11.7921C26.0511 13.0437 23.878 13.0091 22.5137 11.7135L22.4719 11.6738C21.5379 10.7867 20.0497 10.763 19.0845 11.6203L18.891 11.7922C17.4808 13.0438 15.3079 13.0092 13.9436 11.7136L13.9024 11.6746C12.9676 10.787 11.4797 10.7632 10.5143 11.6204L10.3206 11.7925C9.63148 12.4042 8.75983 12.7087 7.88943 12.7087ZM12.1793 9.92576C13.0892 9.92576 13.9979 10.2585 14.6952 10.921L14.7365 10.96C15.0515 11.2592 15.4296 11.4602 15.8292 11.5624V8.85973H9.7546V10.8364C10.4426 10.2286 11.3115 9.92576 12.1793 9.92576Z" fill="#3E3E3E" stroke="#3E3E3E" stroke-width="0.5"/>
<path fill-rule="evenodd" clip-rule="evenodd" d="M5.37348 22.0046C6.07083 22.6671 6.9795 23 7.88958 23C8.75983 22.9998 9.63162 22.6953 10.3206 22.0835L10.5143 21.9114C11.4797 21.0543 12.9676 21.078 13.9024 21.9656L13.9436 22.0046C15.3082 23.3004 17.4811 23.3349 18.891 22.0832L19.0845 21.9113C20.0497 21.054 21.5379 21.0778 22.4719 21.9648L22.5137 22.0045C23.8783 23.3002 26.0512 23.3347 27.4611 22.0831L27.6546 21.9112C28.6198 21.0542 30.1079 21.0778 31.0425 21.9651C31.2615 22.1731 31.6167 22.1732 31.8356 21.9651C32.0548 21.7571 32.0548 21.4198 31.8356 21.2118C30.4711 19.9161 28.2981 19.8816 26.8883 21.1333L26.6947 21.3052C25.7296 22.1624 24.2413 22.1387 23.3073 21.2517L23.2655 21.212C21.9009 19.9162 19.7277 19.8819 18.3181 21.1334L18.1246 21.3053C17.1593 22.1624 15.6713 22.1387 14.7365 21.2511L14.6952 21.2121C13.331 19.9162 11.1577 19.8816 9.74815 21.1333L9.55435 21.3053C8.58903 22.1626 7.10108 22.1387 6.16632 21.2511L6.1251 21.2121C4.76069 19.9164 2.58758 19.8819 1.17774 21.1335C0.951552 21.3343 0.939633 21.6715 1.15124 21.8863C1.36284 22.1009 1.71775 22.1126 1.94408 21.9114C2.9094 21.0543 4.3975 21.0782 5.33225 21.9656L5.37348 22.0046Z" fill="#3E3E3E"/>
<path d="M7.88958 23V23.25H7.88961L7.88958 23ZM5.37348 22.0046L5.54566 21.8234L5.54531 21.8231L5.37348 22.0046ZM10.3206 22.0835L10.1546 21.8965L10.1545 21.8965L10.3206 22.0835ZM10.5143 21.9114L10.6803 22.0984L10.6803 22.0984L10.5143 21.9114ZM13.9024 21.9656L13.7302 22.1469L13.7305 22.1472L13.9024 21.9656ZM13.9436 22.0046L14.1158 21.8234L14.1154 21.8231L13.9436 22.0046ZM18.891 22.0832L19.0569 22.2702L19.057 22.2701L18.891 22.0832ZM19.0845 21.9113L18.9185 21.7244L18.9184 21.7244L19.0845 21.9113ZM22.4719 21.9648L22.2998 22.1461L22.2998 22.1461L22.4719 21.9648ZM22.5137 22.0045L22.3416 22.1858L22.3416 22.1858L22.5137 22.0045ZM27.4611 22.0831L27.6271 22.27L27.6271 22.27L27.4611 22.0831ZM27.6546 21.9112L27.4886 21.7242L27.4886 21.7243L27.6546 21.9112ZM31.0425 21.9651L31.2146 21.7838L31.2146 21.7838L31.0425 21.9651ZM31.8356 21.9651L31.6635 21.7838L31.6634 21.7839L31.8356 21.9651ZM31.8356 21.2118L31.6635 21.3931L31.6635 21.3932L31.8356 21.2118ZM26.8883 21.1333L26.7223 20.9463L26.7222 20.9464L26.8883 21.1333ZM26.6947 21.3052L26.8608 21.4921L26.8608 21.4921L26.6947 21.3052ZM23.3073 21.2517L23.4794 21.0704L23.4794 21.0704L23.3073 21.2517ZM23.2655 21.212L23.4376 21.0307L23.4376 21.0307L23.2655 21.212ZM18.3181 21.1334L18.1522 20.9465L18.1521 20.9465L18.3181 21.1334ZM18.1246 21.3053L18.2906 21.4923L18.2907 21.4922L18.1246 21.3053ZM14.7365 21.2511L14.9086 21.0698L14.9083 21.0695L14.7365 21.2511ZM14.6952 21.2121L14.5231 21.3934L14.5234 21.3937L14.6952 21.2121ZM9.74815 21.1333L9.91412 21.3202L9.91414 21.3202L9.74815 21.1333ZM9.55435 21.3053L9.38838 21.1184L9.38835 21.1184L9.55435 21.3053ZM6.16632 21.2511L6.33847 21.0698L6.33816 21.0695L6.16632 21.2511ZM6.1251 21.2121L5.95294 21.3934L5.95326 21.3937L6.1251 21.2121ZM1.17774 21.1335L1.34371 21.3205L1.34372 21.3205L1.17774 21.1335ZM1.15124 21.8863L0.973147 22.0617L0.973202 22.0618L1.15124 21.8863ZM1.94408 21.9114L1.77809 21.7245L1.77798 21.7246L1.94408 21.9114ZM5.33225 21.9656L5.16012 22.1469L5.16042 22.1472L5.33225 21.9656ZM7.88958 22.75C7.03999 22.75 6.194 22.4393 5.54566 21.8234L5.2013 22.1859C5.94765 22.8949 6.91901 23.25 7.88958 23.25V22.75ZM10.1545 21.8965C9.51374 22.4656 8.70188 22.7499 7.88954 22.75L7.88961 23.25C8.81777 23.2498 9.7495 22.925 10.4866 22.2704L10.1545 21.8965ZM10.3484 21.7245L10.1546 21.8965L10.4865 22.2704L10.6803 22.0984L10.3484 21.7245ZM14.0745 21.7843C13.0454 20.8071 11.4105 20.7814 10.3484 21.7245L10.6803 22.0984C11.5488 21.3272 12.8899 21.3489 13.7302 22.1469L14.0745 21.7843ZM14.1154 21.8231L14.0742 21.784L13.7305 22.1472L13.7718 22.1862L14.1154 21.8231ZM18.725 21.8962C17.4119 23.062 15.3859 23.0294 14.1158 21.8234L13.7715 22.1859C15.2304 23.5713 17.5503 23.6077 19.0569 22.2702L18.725 21.8962ZM18.9184 21.7244L18.7249 21.8963L19.057 22.2701L19.2505 22.0982L18.9184 21.7244ZM22.6441 21.7836C21.6156 20.8068 19.9804 20.7812 18.9185 21.7244L19.2505 22.0982C20.1189 21.3269 21.4602 21.3487 22.2998 22.1461L22.6441 21.7836ZM22.6859 21.8232L22.6441 21.7835L22.2998 22.1461L22.3416 22.1858L22.6859 21.8232ZM27.2951 21.8961C25.9821 23.0618 23.956 23.0293 22.6859 21.8232L22.3416 22.1858C23.8006 23.5712 26.1204 23.6076 27.6271 22.27L27.2951 21.8961ZM27.4886 21.7243L27.2951 21.8962L27.6271 22.27L27.8206 22.0981L27.4886 21.7243ZM31.2146 21.7838C30.1856 20.8068 28.5506 20.7813 27.4886 21.7242L27.8206 22.0981C28.689 21.3271 30.0302 21.3487 30.8704 22.1464L31.2146 21.7838ZM31.6634 21.7839C31.5411 21.9002 31.3373 21.9003 31.2146 21.7838L30.8703 22.1464C31.1858 22.4459 31.6924 22.4463 32.0079 22.1463L31.6634 21.7839ZM31.6635 21.3932C31.7788 21.5026 31.7788 21.6743 31.6635 21.7838L32.0077 22.1464C32.3308 21.8399 32.3308 21.3371 32.0077 21.0305L31.6635 21.3932ZM27.0542 21.3202C28.3673 20.1545 30.3934 20.1871 31.6635 21.3931L32.0078 21.0305C30.5488 19.6452 28.2289 19.6087 26.7223 20.9463L27.0542 21.3202ZM26.8608 21.4921L27.0543 21.3202L26.7222 20.9464L26.5287 21.1183L26.8608 21.4921ZM23.1351 21.4329C24.1636 22.4097 25.7988 22.4353 26.8608 21.4921L26.5287 21.1183C25.6603 21.8895 24.3191 21.8678 23.4794 21.0704L23.1351 21.4329ZM23.0933 21.3933L23.1351 21.4329L23.4794 21.0704L23.4376 21.0307L23.0933 21.3933ZM18.4841 21.3204C19.7969 20.1548 21.8232 20.1872 23.0933 21.3933L23.4376 21.0307C21.9787 19.6453 19.6585 19.609 18.1522 20.9465L18.4841 21.3204ZM18.2907 21.4922L18.4842 21.3203L18.1521 20.9465L17.9586 21.1184L18.2907 21.4922ZM14.5643 21.4324C15.5936 22.4096 17.2285 22.4354 18.2906 21.4923L17.9586 21.1184C17.0901 21.8895 15.7491 21.8678 14.9086 21.0698L14.5643 21.4324ZM14.5234 21.3937L14.5646 21.4327L14.9083 21.0695L14.8671 21.0305L14.5234 21.3937ZM9.91414 21.3202C11.2269 20.1545 13.2532 20.1872 14.5231 21.3934L14.8674 21.0308C13.4087 19.6453 11.0885 19.6087 9.58215 20.9463L9.91414 21.3202ZM9.72032 21.4923L9.91412 21.3202L9.58218 20.9463L9.38838 21.1184L9.72032 21.4923ZM5.99418 21.4324C7.02331 22.4096 8.65818 22.4355 9.72036 21.4922L9.38835 21.1184C8.51988 21.8896 7.17885 21.8678 6.33847 21.0698L5.99418 21.4324ZM5.95326 21.3937L5.99448 21.4327L6.33816 21.0695L6.29694 21.0305L5.95326 21.3937ZM1.34372 21.3205C2.65678 20.1548 4.68297 20.1873 5.95294 21.3934L6.29725 21.0308C4.8384 19.6454 2.51839 19.609 1.01176 20.9466L1.34372 21.3205ZM1.32932 21.7108C1.21882 21.5986 1.22393 21.4268 1.34371 21.3205L1.01177 20.9466C0.679172 21.2418 0.660447 21.7443 0.973147 22.0617L1.32932 21.7108ZM1.77798 21.7246C1.65083 21.8376 1.4472 21.8304 1.32927 21.7108L0.973202 22.0618C1.27848 22.3714 1.78468 22.3876 2.11018 22.0983L1.77798 21.7246ZM5.50438 21.7843C4.47526 20.8073 2.84026 20.7814 1.77809 21.7245L2.11007 22.0984C2.97855 21.3272 4.31973 21.3491 5.16012 22.1469L5.50438 21.7843ZM5.54531 21.8231L5.50409 21.784L5.16042 22.1472L5.20164 22.1862L5.54531 21.8231Z" fill="#3E3E3E"/>
</svg>
