<svg width="14" height="15" viewBox="0 0 14 15" fill="none" xmlns="http://www.w3.org/2000/svg">
<path fill-rule="evenodd" clip-rule="evenodd" d="M9.98351 10.6625L4.6866 7.65378L4.10327 8.64785L9.40018 11.6565L9.98351 10.6625Z" fill="#3E3E3E"/>
<path fill-rule="evenodd" clip-rule="evenodd" d="M9.98351 4.33822L4.6866 7.34699L4.10327 6.35292L9.40018 3.34421L9.98351 4.33822Z" fill="#3E3E3E"/>
<path fill-rule="evenodd" clip-rule="evenodd" d="M2.45 8.75969C3.15877 8.75969 3.73333 8.19437 3.73333 7.49712C3.73333 6.79979 3.15877 6.23454 2.45 6.23454C1.74123 6.23454 1.16667 6.79979 1.16667 7.49712C1.16667 8.19437 1.74123 8.75969 2.45 8.75969ZM2.45 9.90749C3.8031 9.90749 4.9 8.82826 4.9 7.49712C4.9 6.1659 3.8031 5.0867 2.45 5.0867C1.0969 5.0867 0 6.1659 0 7.49712C0 8.82826 1.0969 9.90749 2.45 9.90749Z" fill="#3E3E3E"/>
<path fill-rule="evenodd" clip-rule="evenodd" d="M11.55 10.827C12.2587 10.827 12.8333 11.3923 12.8333 12.0896C12.8333 12.7869 12.2587 13.3522 11.55 13.3522C10.8412 13.3522 10.2666 12.7869 10.2666 12.0896C10.2666 11.3923 10.8412 10.827 11.55 10.827ZM11.55 9.67923C12.903 9.67923 14 10.7584 14 12.0896C14 13.4208 12.903 14.5 11.55 14.5C10.1969 14.5 9.09998 13.4208 9.09998 12.0896C9.09998 10.7584 10.1969 9.67923 11.55 9.67923Z" fill="#3E3E3E"/>
<path fill-rule="evenodd" clip-rule="evenodd" d="M11.55 4.17296C12.2587 4.17296 12.8333 3.60768 12.8333 2.91038C12.8333 2.21307 12.2587 1.6478 11.55 1.6478C10.8412 1.6478 10.2666 2.21307 10.2666 2.91038C10.2666 3.60768 10.8412 4.17296 11.55 4.17296ZM11.55 5.32075C12.903 5.32075 14 4.24159 14 2.91038C14 1.57916 12.903 0.5 11.55 0.5C10.1969 0.5 9.09998 1.57916 9.09998 2.91038C9.09998 4.24159 10.1969 5.32075 11.55 5.32075Z" fill="#3E3E3E"/>
</svg>
