<svg width="21" height="20" viewBox="0 0 21 20" fill="none" xmlns="http://www.w3.org/2000/svg">
<path d="M19.3594 0H1.64062C0.73418 0 0 0.699219 0 1.5625V18.4375C0 19.3008 0.73418 20 1.64062 20H19.3594C20.2658 20 21 19.3008 21 18.4375V1.5625C21 0.699219 20.2658 0 19.3594 0ZM14.6918 8.44531C14.6959 8.53125 14.6959 8.62109 14.6959 8.71094C14.6959 11.4258 12.5262 14.5586 8.55586 14.5586C7.3377 14.5586 6.20156 14.2188 5.25 13.6367C5.41816 13.6562 5.59043 13.6641 5.7668 13.6641C6.77578 13.6641 7.70684 13.3359 8.44512 12.7852C7.50176 12.7695 6.70195 12.1758 6.43125 11.3594C6.5625 11.3828 6.69785 11.3945 6.8373 11.3945C7.03418 11.3945 7.22695 11.3711 7.40742 11.3203C6.41895 11.1328 5.67656 10.3008 5.67656 9.30469V9.28125C5.96777 9.43359 6.3 9.52734 6.65273 9.53906C6.07441 9.17188 5.69297 8.53906 5.69297 7.82812C5.69297 7.45312 5.79961 7.09766 5.98418 6.79297C7.05059 8.03906 8.63789 8.85547 10.4303 8.94141C10.3934 8.79297 10.3729 8.63672 10.3729 8.47266C10.3729 7.33984 11.3408 6.41797 12.5303 6.41797C13.1496 6.41797 13.7115 6.66797 14.1053 7.06641C14.5975 6.97266 15.0568 6.80469 15.4752 6.56641C15.3152 7.04688 14.9707 7.44922 14.5277 7.70313C14.9625 7.65234 15.3809 7.54297 15.7664 7.37891C15.4793 7.79297 15.1143 8.15234 14.6918 8.44531Z" fill="#3E3E3E"/>
</svg>
