<svg width="14" height="15" viewBox="0 0 14 15" fill="none" xmlns="http://www.w3.org/2000/svg">
<path fill-rule="evenodd" clip-rule="evenodd" d="M5.21234 1.41996C6.08846 0.193347 7.91149 0.193347 8.78768 1.41996L8.92718 1.61524C9.08132 1.83112 9.34026 1.94671 9.60389 1.91742L10.2256 1.84833C11.6249 1.69287 12.8071 2.87516 12.6517 4.27437L12.5826 4.8961C12.5533 5.15976 12.6689 5.41865 12.8848 5.57285L13.0801 5.71234C14.3066 6.58846 14.3066 8.41149 13.0801 9.28768L12.8848 9.42718C12.6689 9.58132 12.5533 9.84026 12.5826 10.1039L12.6517 10.7256C12.8071 12.1249 11.6249 13.3071 10.2256 13.1517L9.60389 13.0826C9.34026 13.0533 9.08132 13.1689 8.92718 13.3848L8.78768 13.5801C7.91149 14.8066 6.08853 14.8066 5.21234 13.5801L5.07285 13.3848C4.91865 13.1689 4.65976 13.0533 4.39609 13.0826L3.77437 13.1517C2.37516 13.3071 1.19287 12.1249 1.34833 10.7256L1.41742 10.1039C1.44671 9.84026 1.33112 9.58132 1.11524 9.42718L0.91996 9.28768C-0.306653 8.41149 -0.306653 6.58853 0.91996 5.71234L1.11524 5.57285C1.33112 5.41865 1.44671 5.15976 1.41742 4.89609L1.34833 4.27437C1.19287 2.87516 2.37516 1.69287 3.77437 1.84833L4.3961 1.91742C4.65976 1.94671 4.91865 1.83112 5.07285 1.61524L5.21234 1.41996ZM9.71468 5.51762C10.0006 5.8036 10.0006 6.26728 9.71468 6.55323L6.91814 9.34977C6.55895 9.70903 5.97649 9.70903 5.6173 9.34977L4.28533 8.01781C3.99936 7.73185 3.99936 7.26817 4.28533 6.98221C4.57132 6.69625 5.03497 6.69625 5.32095 6.98221L6.26772 7.92899L8.67908 5.51762C8.96504 5.23165 9.42872 5.23165 9.71468 5.51762Z" fill="#323232"/>
</svg>
