<svg width="13" height="13" viewBox="0 0 13 12" fill="none" xmlns="http://www.w3.org/2000/svg">
<path d="M5.58057 0.5C3.05622 0.5 1 2.55622 1 5.08057C1 7.60492 3.05622 9.66113 5.58057 9.66113C6.6783 9.66113 7.68643 9.27132 8.47652 8.62424L11.2114 11.3592C11.2537 11.4031 11.3042 11.4382 11.3601 11.4624C11.4161 11.4866 11.4763 11.4994 11.5372 11.5C11.5982 11.5006 11.6586 11.4891 11.715 11.466C11.7715 11.443 11.8227 11.4089 11.8658 11.3658C11.9089 11.3227 11.943 11.2715 11.966 11.215C11.9891 11.1586 12.0006 11.0982 12 11.0372C11.9994 10.9763 11.9866 10.9161 11.9624 10.8601C11.9382 10.8042 11.9031 10.7537 11.8592 10.7114L9.12424 7.97652C9.77132 7.18643 10.1611 6.1783 10.1611 5.08057C10.1611 2.55622 8.10492 0.5 5.58057 0.5ZM5.58057 1.41611C7.60981 1.41611 9.24502 3.05132 9.24502 5.08057C9.24502 7.10981 7.60981 8.74502 5.58057 8.74502C3.55132 8.74502 1.91611 7.10981 1.91611 5.08057C1.91611 3.05132 3.55132 1.41611 5.58057 1.41611Z" fill="#F7F7F7" stroke="#F7F7F7"/>
</svg>
