<svg width="18" height="17" viewBox="0 0 18 17" fill="none" xmlns="http://www.w3.org/2000/svg">
<path fill-rule="evenodd" clip-rule="evenodd" d="M18 0.530949C18 0.452379 17.9814 0.374798 17.9458 0.303794C17.9102 0.23279 17.8584 0.170133 17.794 0.120335C17.7297 0.0705369 17.6544 0.0348388 17.5737 0.0158124C17.493 -0.00321407 17.4088 -0.00509517 17.3273 0.0103046L11.8125 1.05159L6.29775 0.0103046C6.22497 -0.00343483 6.15003 -0.00343483 6.07725 0.0103046L0.45225 1.07284C0.324782 1.09691 0.210072 1.16193 0.127624 1.25684C0.0451756 1.35176 7.85048e-05 1.47072 0 1.59349L0 16.469C5.02343e-05 16.5476 0.0185515 16.6252 0.0541707 16.6962C0.08979 16.7672 0.141641 16.8299 0.205987 16.8797C0.270333 16.9295 0.345573 16.9652 0.426286 16.9842C0.506998 17.0032 0.591175 17.0051 0.67275 16.9897L6.1875 15.9484L11.7023 16.9897C11.775 17.0034 11.85 17.0034 11.9227 16.9897L17.5477 15.9272C17.6752 15.9031 17.7899 15.8381 17.8724 15.7432C17.9548 15.6482 17.9999 15.5293 18 15.4065V0.530949ZM5.625 14.9709V1.1791L6.1875 1.07284L6.75 1.1791V14.9709L6.29775 14.8859C6.22498 14.8721 6.15002 14.8721 6.07725 14.8859L5.625 14.9709ZM11.25 15.8209V2.02913L11.7023 2.11413C11.775 2.12787 11.85 2.12787 11.9227 2.11413L12.375 2.02913V15.8209L11.8125 15.9272L11.25 15.8209Z" fill="white"/>
</svg>
